<?xml version="1.0" encoding="utf-8"?>
<!-- Generator: Adobe Illustrator 19.1.0, SVG Export Plug-In . SVG Version: 6.00 Build 0)  -->
<svg version="1.1" id="レイヤー_1" xmlns="http://www.w3.org/2000/svg" xmlns:xlink="http://www.w3.org/1999/xlink" x="0px"
	 y="0px" viewBox="-136.4 250.2 602.6 85" style="enable-background:new -136.4 250.2 602.6 85;" xml:space="preserve">
<style type="text/css">
	.st0{enable-background:new    ;}
	.st1{fill:#FFFFFF;}
</style>
<g class="st0">
	<path class="st1" d="M-77,252.8v73.4h-16.7l0-49.5l-6.6,49.5h-11.8l-7-48.4l0,48.4h-16.7v-73.4h24.7c0.7,4.4,1.5,9.6,2.3,15.6
		l2.7,18.7l4.4-34.3H-77z"/>
	<path class="st1" d="M-28.4,297.2h-23.7v13c0,2.7,0.2,4.5,0.6,5.3c0.4,0.8,1.1,1.2,2.3,1.2c1.4,0,2.3-0.5,2.8-1.6
		c0.5-1,0.7-3.1,0.7-6.1v-7.9h17.4v4.4c0,3.7-0.2,6.6-0.7,8.6c-0.5,2-1.6,4.1-3.3,6.4c-1.7,2.3-3.9,4-6.5,5.1
		c-2.6,1.1-6,1.7-9.9,1.7c-3.9,0-7.3-0.6-10.2-1.7c-3-1.1-5.3-2.7-6.9-4.6c-1.6-1.9-2.8-4.1-3.4-6.4c-0.6-2.3-1-5.7-1-10.2v-17.5
		c0-5.3,0.7-9.4,2.1-12.4s3.7-5.4,7-7c3.2-1.6,7-2.4,11.2-2.4c5.1,0,9.4,1,12.7,2.9c3.3,1.9,5.7,4.5,7,7.8c1.3,3.2,2,7.7,2,13.6
		V297.2z M-46.8,287.4V283c0-3.1-0.2-5.1-0.5-6c-0.3-0.9-1-1.4-2-1.4c-1.3,0-2.1,0.4-2.4,1.2c-0.3,0.8-0.5,2.8-0.5,6.2v4.4H-46.8z"
		/>
	<path class="st1" d="M19.1,297.2H-4.7v13c0,2.7,0.2,4.5,0.6,5.3c0.4,0.8,1.1,1.2,2.3,1.2c1.4,0,2.3-0.5,2.8-1.6
		c0.5-1,0.7-3.1,0.7-6.1v-7.9h17.4v4.4c0,3.7-0.2,6.6-0.7,8.6c-0.5,2-1.6,4.1-3.3,6.4c-1.7,2.3-3.9,4-6.5,5.1
		c-2.6,1.1-6,1.7-9.9,1.7c-3.9,0-7.3-0.6-10.2-1.7c-3-1.1-5.3-2.7-6.9-4.6c-1.6-1.9-2.8-4.1-3.4-6.4c-0.6-2.3-1-5.7-1-10.2v-17.5
		c0-5.3,0.7-9.4,2.1-12.4s3.7-5.4,7-7c3.2-1.6,7-2.4,11.2-2.4c5.1,0,9.4,1,12.7,2.9c3.3,1.9,5.7,4.5,7,7.8c1.3,3.2,2,7.7,2,13.6
		V297.2z M0.7,287.4V283c0-3.1-0.2-5.1-0.5-6c-0.3-0.9-1-1.4-2-1.4c-1.3,0-2.1,0.4-2.4,1.2c-0.3,0.8-0.5,2.8-0.5,6.2v4.4H0.7z"/>
	<path class="st1" d="M44.4,258v9.5h4.9v9.5h-4.9v32.2c0,4,0.2,6.2,0.6,6.6c0.4,0.5,2.1,0.7,5.1,0.7v9.7h-7.4
		c-4.2,0-7.1-0.2-8.9-0.5c-1.8-0.3-3.4-1.1-4.7-2.4c-1.4-1.3-2.2-2.7-2.5-4.3c-0.3-1.6-0.5-5.4-0.5-11.4V277H22v-9.5H26V258H44.4z"
		/>
	<path class="st1" d="M90.7,285.3H74.5V282c0-2.8-0.2-4.5-0.5-5.3s-1.1-1.1-2.4-1.1c-1,0-1.8,0.3-2.3,1c-0.5,0.7-0.8,1.7-0.8,3.1
		c0,1.8,0.1,3.2,0.4,4.1c0.3,0.9,1,1.8,2.3,2.8c1.3,1,3.9,2.5,7.9,4.5c5.3,2.6,8.8,5,10.5,7.3c1.7,2.3,2.5,5.6,2.5,10
		c0,4.9-0.6,8.6-1.9,11.1c-1.3,2.5-3.4,4.4-6.4,5.8c-3,1.3-6.6,2-10.8,2c-4.7,0-8.6-0.7-11.9-2.2s-5.6-3.4-6.8-5.9
		c-1.2-2.5-1.9-6.2-1.9-11.2v-2.9h16.2v3.8c0,3.2,0.2,5.3,0.6,6.3c0.4,1,1.2,1.5,2.4,1.5c1.3,0,2.2-0.3,2.7-1c0.5-0.6,0.8-2,0.8-4.1
		c0-2.9-0.3-4.7-1-5.4c-0.7-0.7-4.2-2.9-10.7-6.4c-5.4-3-8.7-5.8-9.8-8.2c-1.2-2.5-1.8-5.4-1.8-8.8c0-4.8,0.6-8.3,1.9-10.6
		c1.3-2.3,3.4-4,6.5-5.3c3-1.2,6.6-1.9,10.6-1.9c4,0,7.4,0.5,10.2,1.5c2.8,1,4.9,2.4,6.4,4c1.5,1.7,2.4,3.2,2.7,4.6
		c0.3,1.4,0.5,3.6,0.5,6.7V285.3z"/>
	<path class="st1" d="M158.5,284.8h-19.1V272c0-3.7-0.2-6-0.6-6.9c-0.4-0.9-1.3-1.4-2.7-1.4c-1.6,0-2.6,0.6-3,1.7
		c-0.4,1.1-0.6,3.5-0.6,7.3v34.1c0,3.6,0.2,5.9,0.6,7c0.4,1.1,1.4,1.6,2.9,1.6c1.4,0,2.3-0.5,2.8-1.6c0.4-1.1,0.7-3.7,0.7-7.7v-9.2
		h19.1v2.9c0,7.6-0.5,13-1.6,16.2c-1.1,3.2-3.4,6-7.1,8.4c-3.7,2.4-8.2,3.6-13.6,3.6c-5.6,0-10.2-1-13.8-3c-3.6-2-6-4.8-7.2-8.4
		c-1.2-3.6-1.8-9-1.8-16.2v-21.4c0-5.3,0.2-9.3,0.5-11.9c0.4-2.6,1.4-5.2,3.2-7.6c1.8-2.4,4.3-4.4,7.5-5.8c3.2-1.4,6.9-2.1,11-2.1
		c5.6,0,10.3,1.1,13.9,3.3c3.7,2.2,6.1,4.9,7.2,8.1c1.1,3.2,1.7,8.3,1.7,15.1V284.8z"/>
	<path class="st1" d="M206.2,287.2v14.7c0,5.4-0.3,9.4-0.8,11.9s-1.7,4.9-3.5,7.1c-1.8,2.2-4.1,3.8-6.9,4.9c-2.8,1-6,1.6-9.6,1.6
		c-4,0-7.5-0.4-10.3-1.3c-2.8-0.9-5-2.2-6.5-4c-1.6-1.8-2.7-4-3.3-6.5c-0.7-2.6-1-6.4-1-11.5v-15.4c0-5.6,0.6-10,1.8-13.1
		c1.2-3.1,3.4-5.7,6.5-7.6c3.1-1.9,7.2-2.9,12.1-2.9c4.1,0,7.6,0.6,10.6,1.8s5.2,2.8,6.8,4.8c1.6,2,2.7,4,3.3,6.1
		S206.2,282.9,206.2,287.2z M187.9,282.7c0-3.1-0.2-5-0.5-5.8c-0.3-0.8-1-1.2-2.1-1.2s-1.8,0.4-2.2,1.2c-0.4,0.8-0.5,2.7-0.5,5.8
		v27.2c0,2.8,0.2,4.7,0.5,5.6c0.4,0.9,1.1,1.3,2.1,1.3c1.1,0,1.8-0.4,2.2-1.2c0.3-0.8,0.5-2.5,0.5-5.1V282.7z"/>
	<path class="st1" d="M230.3,266.1l-0.3,5.7c1.4-2.3,3.1-4,5.1-5.1c2-1.1,4.2-1.7,6.7-1.7c4.9,0,8.7,2.3,11.6,6.8
		c1.5-2.3,3.3-4,5.2-5.1s4.1-1.7,6.4-1.7c3.1,0,5.7,0.8,7.7,2.3c2,1.5,3.3,3.4,3.9,5.6c0.6,2.2,0.9,5.8,0.9,10.7v42.7h-17.8V287
		c0-5.1-0.2-8.3-0.5-9.5s-1.2-1.8-2.4-1.8c-1.3,0-2.1,0.6-2.5,1.8c-0.4,1.2-0.6,4.4-0.6,9.6v39.2H236V288c0-5.9-0.1-9.4-0.4-10.6
		c-0.3-1.2-1.1-1.8-2.4-1.8c-0.8,0-1.5,0.3-2.1,0.9c-0.6,0.6-0.9,1.4-1,2.3s-0.1,2.8-0.1,5.7v41.7h-17.8v-60.2H230.3z"/>
	<path class="st1" d="M302.5,266.1l-0.3,5.3c1.6-2.1,3.4-3.8,5.4-4.8c2-1.1,4.1-1.6,6.4-1.6c2.8,0,5.3,0.8,7.4,2.3
		c2.1,1.5,3.4,3.3,3.9,5.3c0.5,2,0.8,5.4,0.8,10.2V308c0,5.5-0.3,9.4-1,11.7c-0.7,2.3-2,4.2-4,5.5s-4.4,2.1-7.3,2.1
		c-2.3,0-4.4-0.5-6.3-1.6c-1.9-1.1-3.7-2.6-5.3-4.7v13.8h-18.3v-68.7H302.5z M307.7,283.6c0-3.7-0.1-6-0.4-6.8
		c-0.3-0.8-1-1.2-2.3-1.2c-1.2,0-2,0.5-2.3,1.4c-0.3,0.9-0.5,3.1-0.5,6.6v24.9c0,3.6,0.2,5.9,0.5,6.8c0.4,0.9,1.1,1.4,2.4,1.4
		c1.2,0,1.9-0.4,2.2-1.2c0.3-0.8,0.4-2.8,0.4-6.1V283.6z"/>
	<path class="st1" d="M348.4,289.4h-17.2v-4c0-4.7,0.5-8.2,1.6-10.8c1.1-2.5,3.2-4.8,6.5-6.7c3.2-1.9,7.4-2.9,12.6-2.9
		c6.2,0,10.9,1.1,14,3.3c3.1,2.2,5,4.9,5.7,8.1s1,9.8,1,19.7v30.2h-17.8v-5.4c-1.1,2.1-2.6,3.8-4.3,4.8c-1.8,1.1-3.9,1.6-6.3,1.6
		c-3.2,0-6.1-0.9-8.8-2.7c-2.7-1.8-4-5.7-4-11.8v-4.9c0-4.5,0.7-7.6,2.1-9.2c1.4-1.6,4.9-3.5,10.6-5.7c6-2.4,9.2-3.9,9.7-4.8
		c0.4-0.8,0.6-2.5,0.6-5c0-3.1-0.2-5.2-0.7-6.1c-0.5-1-1.2-1.4-2.3-1.4c-1.2,0-2,0.4-2.3,1.2c-0.3,0.8-0.5,2.9-0.5,6.2V289.4z
		 M354.2,297.6c-2.9,2.1-4.6,3.9-5.1,5.4c-0.5,1.5-0.7,3.5-0.7,6.3c0,3.1,0.2,5.1,0.6,6c0.4,0.9,1.2,1.4,2.4,1.4
		c1.1,0,1.9-0.4,2.2-1.1c0.3-0.7,0.5-2.6,0.5-5.6V297.6z"/>
	<path class="st1" d="M397.4,266.1l-0.3,5.5c1.3-2.2,3-3.9,4.9-5c1.9-1.1,4.1-1.7,6.6-1.7c3.1,0,5.7,0.7,7.7,2.2
		c2,1.5,3.3,3.3,3.9,5.6c0.6,2.3,0.9,6,0.9,11.3v42.2h-18.3v-41.7c0-4.1-0.1-6.7-0.4-7.6c-0.3-0.9-1-1.4-2.3-1.4
		c-1.3,0-2.1,0.5-2.4,1.6c-0.3,1-0.5,3.8-0.5,8.4v40.7h-18.3v-60.2H397.4z"/>
	<path class="st1" d="M465.7,266.1l-5.2,43.5c-0.8,6.9-1.5,11.6-2.1,14.1c-0.6,2.5-1.5,4.6-2.8,6.2c-1.3,1.6-3.1,2.8-5.4,3.6
		c-2.3,0.8-6,1.2-11.1,1.2H428V325c2.8,0,4.7-0.1,5.5-0.4c0.8-0.3,1.2-0.9,1.2-1.9c0-0.5-0.4-2.6-1.1-6.3l-10-50.3h16.6l6,40.6
		l2.9-40.6H465.7z"/>
</g>
</svg>
